C:\My Captures\DataSMARTClinic\0004~001 ID\0004~aa~STRATO_01\Standing_STRATO_ID_01.mot
version=1
nRows=106
nColumns=10
inDegrees=yes

BTS OpenSim export

endheader
time	[P0]_force_vx	[P0]_force_vy	[P0]_force_vz	[P0]_force_px	[P0]_force_py	[P0]_force_pz	[P0]_torque_x	[P0]_torque_y	[P0]_torque_z
2.688000	-2.39181924	657.45599365	4.58442736	0.85363007	0.00204133	0.20223492	0.00428916	-0.86536396	-0.00026280
2.692000	-2.92637181	657.45141602	5.12576485	0.85361320	0.00204121	0.20238359	0.00467603	-0.94341791	-0.00028650
2.696000	-2.93445969	657.71746826	4.04993916	0.85373455	0.00204188	0.20215063	0.00444175	-0.89614910	-0.00027215
2.700000	-2.39571476	658.24194336	4.58466578	0.85378897	0.00204210	0.20229994	0.00428599	-0.86472350	-0.00026260
2.704000	-2.39571357	658.24169922	4.58466578	0.85357809	0.00204110	0.20217076	0.00429001	-0.86553621	-0.00026285
2.708000	-2.93314147	657.45147705	4.04985809	0.85340184	0.00204021	0.20221746	0.00444820	-0.89745182	-0.00027254
2.712000	-2.93236303	657.97729492	4.58797121	0.85364783	0.00204142	0.20223497	0.00526316	-1.06187475	-0.00032247
2.716000	-2.93495893	658.50103760	4.58813000	0.85368252	0.00204159	0.20223595	0.00526241	-1.06172323	-0.00032243
2.720000	-2.93156338	658.49890137	5.12608290	0.85347319	0.00204055	0.20225516	0.00467924	-0.94406492	-0.00028670
2.724000	-2.93026376	658.23669434	5.12600327	0.85334885	0.00203995	0.20219114	0.00468217	-0.94465619	-0.00028688
2.728000	-2.93155265	658.49670410	5.12608194	0.85326231	0.00203950	0.20225704	0.00468439	-0.94510448	-0.00028701
2.732000	-2.93624640	658.76080322	4.58820915	0.85338509	0.00204014	0.20217274	0.00526877	-1.06300724	-0.00032282
2.736000	-2.92895675	657.97296143	5.12592316	0.85322738	0.00203933	0.20225607	0.00468524	-0.94527632	-0.00028707
2.740000	-2.93365908	658.23876953	4.58805037	0.85334885	0.00204000	0.20204172	0.00386150	-0.77908188	-0.00023660
2.744000	-2.93156219	658.49865723	5.12608290	0.85326242	0.00203954	0.20212604	0.00468417	-0.94506043	-0.00028700
2.748000	-2.39230728	658.23730469	5.12261772	0.85315776	0.00203901	0.20219186	0.00424560	-0.85657573	-0.00026013
2.752000	-2.39152694	658.76293945	5.66085291	0.85319299	0.00203921	0.20208031	0.00453169	-0.91429561	-0.00027766
2.756000	-2.93363810	658.23455811	4.58804941	0.85292840	0.00203791	0.20204443	0.00527850	-1.06496918	-0.00032341
2.760000	-2.93285966	658.76043701	5.12616205	0.85317451	0.00203913	0.20206206	0.00468621	-0.94547218	-0.00028713
2.764000	-2.93363810	658.23455811	4.58804941	0.85292840	0.00203791	0.20204443	0.00387065	-0.78092784	-0.00023716
2.768000	-2.39569139	658.23724365	4.58466434	0.85294676	0.00203801	0.20204431	0.00430319	-0.86819488	-0.00026366
2.772000	-2.93495655	658.50054932	4.58813000	0.85326087	0.00203958	0.20197773	0.00386331	-0.77944690	-0.00023671
2.776000	-2.39230609	658.23706055	5.12261772	0.85294688	0.00203800	0.20206270	0.00425019	-0.85750133	-0.00026041
2.780000	-2.93154979	658.49615479	5.12608194	0.85284072	0.00203749	0.20199883	0.00469426	-0.94709545	-0.00028762
2.784000	-2.93156981	658.50018311	5.12608337	0.85305023	0.00203857	0.20186701	0.00468893	-0.94601959	-0.00028729
2.788000	-2.93027115	658.23815918	5.12600374	0.85292721	0.00203798	0.20180179	0.00469182	-0.94660383	-0.00028747
2.792000	-1.85776484	658.24395752	4.58128119	0.85317481	0.00203918	0.20191233	0.00385569	-0.77790844	-0.00023624
2.796000	-2.39231610	658.23907471	5.12261820	0.85294700	0.00203804	0.20193166	0.00512419	-1.03383672	-0.00031396
2.800000	-2.92766547	657.71246338	5.12584400	0.85289186	0.00203777	0.20193160	0.00469290	-0.94682109	-0.00028753
2.804000	-2.93285847	658.76019287	5.12616205	0.85296381	0.00203812	0.20193300	0.00469115	-0.94646722	-0.00028743
2.808000	-2.39100623	657.97485352	5.12253809	0.85261285	0.00203640	0.20186831	0.00425750	-0.85897660	-0.00026086
2.812000	-2.39232445	658.24078369	5.12261868	0.85294557	0.00203807	0.20180167	0.00512367	-1.03373039	-0.00031393
2.816000	-2.39230490	658.23681641	5.12261772	0.85273600	0.00203699	0.20193353	0.00512935	-1.03487694	-0.00031428
2.820000	-2.92896271	657.97418213	5.12592363	0.85280401	0.00203735	0.20186761	0.00469494	-0.94723260	-0.00028766
2.824000	-1.85904086	658.50140381	4.58135939	0.85266656	0.00203667	0.20185110	0.00527414	-1.06409049	-0.00032315
2.828000	-2.39310288	657.71496582	4.58450603	0.85269910	0.00203686	0.20178382	0.00484073	-0.97664654	-0.00029659
2.832000	-2.39100623	657.97485352	5.12253809	0.85261285	0.00203640	0.20186831	0.00425750	-0.85897660	-0.00026086
2.836000	-2.39569998	658.23895264	4.58466530	0.85273600	0.00203704	0.20178410	0.00483993	-0.97648501	-0.00029654
2.840000	-1.86243629	658.50354004	4.04340696	0.85266656	0.00203672	0.20170172	0.00445087	-0.89799017	-0.00027271
2.844000	-1.85776210	658.24340820	4.58128071	0.85275298	0.00203716	0.20165400	0.00527089	-1.06343484	-0.00032295
2.848000	-1.85435700	658.23925781	5.11923265	0.85254347	0.00203608	0.20180425	0.00469121	-0.94647950	-0.00028743
2.852000	-1.85774243	658.23944092	4.58127975	0.85254341	0.00203608	0.20178586	0.00527636	-1.06453848	-0.00032328
2.856000	-2.39100504	657.97460938	5.12253809	0.85240185	0.00203540	0.20173910	0.00513666	-1.03635263	-0.00031472
2.860000	-2.93363571	658.23406982	4.58804893	0.85250664	0.00203590	0.20178610	0.00528725	-1.06673503	-0.00032395
2.864000	-1.86114752	658.24353027	4.04332781	0.85275286	0.00203717	0.20163561	0.00444877	-0.89756566	-0.00027258
2.868000	-2.39362049	658.50225830	5.12269831	0.85264695	0.00203665	0.20160867	0.00513012	-1.03503251	-0.00031432
2.872000	-1.85564458	658.49902344	5.11931181	0.85224646	0.00203463	0.20174117	0.00469801	-0.94785196	-0.00028785
2.876000	-2.39829469	658.76245117	4.58482409	0.85256064	0.00203621	0.20165639	0.00484319	-0.97714335	-0.00029674
2.880000	-2.40167999	658.76257324	4.04687071	0.85256052	0.00203621	0.20163801	0.00402060	-0.81118047	-0.00024634
2.884000	-1.86033714	658.76287842	4.58143854	0.85236812	0.00203525	0.20165814	0.00527928	-1.06512678	-0.00032346
2.888000	-2.93155742	658.49768066	5.12608242	0.85241920	0.00203552	0.20160960	0.00470391	-0.94904250	-0.00028821
2.892000	-2.39698505	658.49822998	4.58474398	0.85222656	0.00203457	0.20159298	0.00431690	-0.87096167	-0.00026450
2.896000	-1.85435581	658.23901367	5.11923265	0.85233259	0.00203507	0.20167509	0.00469545	-0.94733506	-0.00028769
2.900000	-1.85695171	658.76275635	5.11939192	0.85236824	0.00203525	0.20167652	0.00469459	-0.94716167	-0.00028764
2.904000	-2.39698505	658.49822998	4.58474398	0.85222656	0.00203457	0.20159298	0.00485018	-0.97855306	-0.00029717
2.908000	-2.39230132	658.23608398	5.12261724	0.85210335	0.00203398	0.20154604	0.00426854	-0.86120427	-0.00026153
2.912000	-2.39620543	659.02380371	5.12285662	0.85226250	0.00203478	0.20148195	0.00426438	-0.86036503	-0.00026128
2.916000	-1.85435462	658.23876953	5.11923265	0.85212171	0.00203407	0.20154592	0.00469969	-0.94819057	-0.00028795
2.920000	-2.39230132	658.23608398	5.12261724	0.85210335	0.00203398	0.20154604	0.00426854	-0.86120427	-0.00026153
2.924000	-1.85694051	658.76049805	5.11939096	0.85194826	0.00203321	0.20154826	0.00470393	-0.94904739	-0.00028821
2.928000	-1.85435462	658.23876953	5.11923265	0.85212171	0.00203407	0.20154592	0.00469969	-0.94819057	-0.00028795
2.932000	-1.85306466	657.97851563	5.11915350	0.85199690	0.00203351	0.20135051	0.00470137	-0.94852942	-0.00028805
2.936000	-1.85904717	658.50268555	4.58135986	0.85203421	0.00203370	0.20133276	0.00528427	-1.06613266	-0.00032377
2.940000	-2.93023658	658.23120117	5.12600136	0.85187399	0.00203284	0.20154804	0.00471712	-0.95170802	-0.00028902
2.944000	-1.85436308	658.24047852	5.11923313	0.85212034	0.00203410	0.20141594	0.00469882	-0.94801444	-0.00028790
2.948000	-1.86033475	658.76239014	4.58143854	0.85194671	0.00203324	0.20140001	0.00387879	-0.78256929	-0.00023765
2.952000	-2.39699388	658.50000000	4.58474445	0.85201585	0.00203361	0.20133288	0.00485364	-0.97925150	-0.00029738
2.956000	-2.39229989	658.23583984	5.12261724	0.85189247	0.00203297	0.20141686	0.00427313	-0.86213005	-0.00026182
2.960000	-2.39229989	658.23583984	5.12261724	0.85189247	0.00203297	0.20141686	0.00427313	-0.86213005	-0.00026182
2.964000	-2.39101124	657.97589111	5.12253857	0.85197854	0.00203342	0.20135063	0.00427074	-0.86164868	-0.00026167
2.968000	-2.93036675	658.23297119	5.12612486	0.85166317	0.00203187	0.20128782	0.00525520	-1.06026936	-0.00032199
2.972000	-2.39359713	658.49755859	5.12269688	0.85180509	0.00203256	0.20135313	0.00427499	-0.86250478	-0.00026193
2.976000	-2.39358711	658.49554443	5.12269640	0.85159564	0.00203152	0.20135394	0.00428010	-0.86353630	-0.00026224
2.980000	-2.39100122	657.97387695	5.12253761	0.85176897	0.00203238	0.20135143	0.00427586	-0.86268115	-0.00026198
2.984000	-2.39229870	658.23559570	5.12261724	0.85168159	0.00203196	0.20128770	0.00427772	-0.86305577	-0.00026210
2.988000	-2.39099002	657.97161865	5.12253714	0.85155785	0.00203133	0.20135333	0.00428102	-0.86372185	-0.00026230
2.992000	-2.38760400	657.97143555	5.66061211	0.85155797	0.00203133	0.20137171	0.00510647	-1.03026092	-0.00031287
2.996000	-2.39489460	658.75933838	5.12277651	0.85171771	0.00203214	0.20128945	0.00427684	-0.86287928	-0.00026204
3.000000	-2.38891149	658.23522949	5.66069221	0.85147083	0.00203095	0.20117693	0.00510798	-1.03056681	-0.00031297
3.004000	-2.39098883	657.97137451	5.12253714	0.85134685	0.00203032	0.20122410	0.00428561	-0.86464798	-0.00026258
3.008000	-2.39229751	658.23535156	5.12261724	0.85147071	0.00203096	0.20115854	0.00428231	-0.86398149	-0.00026238
3.012000	-2.39098883	657.97137451	5.12253714	0.85134685	0.00203032	0.20122410	0.00428561	-0.86464798	-0.00026258
3.016000	-1.85225320	658.49786377	5.65738678	0.85140336	0.00203060	0.20124309	0.00413271	-0.83379865	-0.00025321
3.020000	-2.39098763	657.97113037	5.12253714	0.85113591	0.00202932	0.20109488	0.00429020	-0.86557412	-0.00026286
3.024000	-2.39488339	658.75708008	5.12277555	0.85129768	0.00203010	0.20116119	0.00428654	-0.86483544	-0.00026264
3.028000	-2.39230609	658.23706055	5.12261772	0.85146928	0.00203099	0.20102856	0.00428178	-0.86387527	-0.00026235
3.032000	-2.39487219	658.75482178	5.12277508	0.85108685	0.00202905	0.20116307	0.00429169	-0.86587495	-0.00026295
3.036000	-1.85563695	658.49749756	5.11931133	0.85119092	0.00202959	0.20109665	0.00471925	-0.95213699	-0.00028915
3.040000	-2.38891006	658.23498535	5.66069221	0.85125995	0.00202995	0.20104776	0.00511313	-1.03160560	-0.00031328
3.044000	-2.39489198	658.75878906	5.12277603	0.85129631	0.00203013	0.20103131	0.00428601	-0.86472929	-0.00026260
3.048000	-2.39697027	658.49523926	4.58474302	0.85117394	0.00202951	0.20107733	0.00487084	-0.98272169	-0.00029844
3.052000	-2.39748907	659.28277588	5.12293530	0.85133421	0.00203032	0.20103219	0.00428509	-0.86454320	-0.00026255
3.056000	-2.39359403	658.49707031	5.12281895	0.85138345	0.00203054	0.20109490	0.00569219	-1.14843476	-0.00034876
3.060000	-2.39150572	658.75866699	5.66085148	0.85129642	0.00203013	0.20104969	0.00511215	-1.03140795	-0.00031322
3.064000	-2.39618063	659.01879883	5.12285519	0.85121059	0.00202969	0.20109759	0.00428839	-0.86520880	-0.00026275
3.068000	-2.92957449	658.75598145	5.66423702	0.85127807	0.00203004	0.20104980	0.00468230	-0.94468153	-0.00028689
3.072000	-2.39020729	658.49670410	5.66077185	0.85117275	0.00202953	0.20098417	0.00511522	-1.03202593	-0.00031341
3.076000	-2.92956471	658.75402832	5.66423607	0.85106874	0.00202900	0.20105061	0.00468797	-0.94582558	-0.00028723
3.080000	-2.92956471	658.75402832	5.66423607	0.85106874	0.00202900	0.20105061	0.00468797	-0.94582558	-0.00028723
3.084000	-2.39279318	659.01843262	5.66093016	0.85100007	0.00202868	0.20098697	0.00511990	-1.03297126	-0.00031370
3.088000	-2.39227438	658.23083496	5.12273788	0.85083932	0.00202787	0.20103207	0.00570520	-1.15105879	-0.00034956
3.092000	-2.39617944	659.01855469	5.12285519	0.85099995	0.00202868	0.20096859	0.00429297	-0.86613339	-0.00026303
3.096000	-2.38680005	658.49230957	6.19884586	0.85075259	0.00202745	0.20100527	0.00454603	-0.91718870	-0.00027854
3.100000	-1.85691452	658.75524902	5.11938953	0.85068524	0.00202710	0.20103471	0.00473115	-0.95453745	-0.00028988
3.104000	-2.39617944	659.01855469	5.12285519	0.85099995	0.00202868	0.20096859	0.00429297	-0.86613339	-0.00026303
3.108000	-2.39277339	659.01440430	5.66092920	0.85079074	0.00202760	0.20111866	0.00512614	-1.03422952	-0.00031408
